# xmcd
#
# Track frame offsets:
#	150
#	22540
#	48757
#	71017
#	98350
#	122138
#	144439
#	162708
#	190909
#	231187
#	250475
#	271214
#	288036
#	306779
#
# Disc length: 4304 seconds
#
# Revision: 0
# Processed by: cddbd v1.4PL0 Copyright (c) Steve Scherf et al.
# Submitted via: EasyCDDAExtractor 4.6.0.1
#
DISCID=b810ce0e
DTITLE=The Big Easy - Live In Town
DYEAR=1900
DGENRE=
TTITLE0=Route 66
TTITLE1=Moondance
TTITLE2=Be Bop A Lula
TTITLE3=Let The Good Times Roll
TTITLE4=Is You Is (Or Is You Ain't My Baby)
TTITLE5=Cheek To Cheek
TTITLE6=Your Song
TTITLE7=Rock Me Baby
TTITLE8=I Got My Mojo Working
TTITLE9=Layla
TTITLE10=Sittin' On The Dock Of The Bay
TTITLE11=Hallelujah I Love Her So
TTITLE12=Just A Gigolo
TTITLE13=What A Winderful World
EXTD=
EXTT0=
EXTT1=
EXTT2=
EXTT3=
EXTT4=
EXTT5=
EXTT6=
EXTT7=
EXTT8=
EXTT9=
EXTT10=
EXTT11=
EXTT12=
EXTT13=
PLAYORDER=
